# Blender v3.2.2 OBJ File: ''
# www.blender.org
mtllib untitled.mtl
o Car5
v 0.170761 0.339923 -0.315837
v -0.147915 -0.017480 -0.467546
v -0.147915 0.339924 -0.315836
v 0.170761 0.485372 0.044159
v -0.147915 0.485372 0.044159
v 0.170761 0.333664 0.401563
v -0.147916 0.333664 0.401563
v -0.147915 -0.026334 0.547011
v 0.170761 -0.026334 0.547011
v -0.147915 -0.383736 0.395302
v 0.170761 -0.383736 0.395302
v 0.170761 -0.529184 0.035306
v -0.147915 -0.529186 0.035306
v 0.170761 -0.377476 -0.322098
v -0.147915 -0.377476 -0.322099
v 0.170761 -0.017480 -0.467546
vt 0.057429 0.665895
vt 0.094859 0.615895
vt 0.057430 0.615895
vt 0.020000 0.665894
vt 0.020000 0.615894
vt 0.282007 0.665896
vt 0.319437 0.615897
vt 0.282007 0.615896
vt 0.244578 0.615896
vt 0.244578 0.665896
vt 0.207148 0.615896
vt 0.207148 0.665896
vt 0.169718 0.665896
vt 0.169719 0.615896
vt 0.132289 0.665895
vt 0.132289 0.615895
vt 0.094859 0.665895
vt 0.159718 0.680281
vt 0.053852 0.935867
vt 0.010000 0.830000
vt 0.053852 0.724133
vt 0.159718 0.979719
vt 0.265585 0.724133
vt 0.309437 0.830000
vt 0.265585 0.935867
vt 0.265585 0.724133
vt 0.265585 0.935867
vt 0.309437 0.830000
vt 0.159718 0.680281
vt 0.053852 0.724133
vt 0.053852 0.935867
vt 0.010000 0.830000
vt 0.159718 0.979719
vt 0.319437 0.665897
vn -0.0000 0.3907 -0.9205
vn 0.0000 0.9272 -0.3746
vn 0.0000 0.9205 0.3907
vn 0.0000 0.3746 0.9272
vn 0.0000 -0.3907 0.9205
vn 0.0000 -0.9272 0.3746
vn 0.0000 -0.9205 -0.3907
vn 0.0000 -0.3746 -0.9272
vn 1.0000 0.0000 0.0000
vn -1.0000 -0.0000 0.0000
usemtl car5_mat
s 1
f 1/1/1 2/2/1 3/3/1
f 4/4/2 3/3/2 5/5/2
f 6/6/3 5/7/3 7/8/3
f 6/6/4 8/9/4 9/10/4
f 9/10/5 10/11/5 11/12/5
f 12/13/6 10/11/6 13/14/6
f 14/15/7 13/14/7 15/16/7
f 16/17/8 15/16/8 2/2/8
f 9/18/9 1/19/9 4/20/9
f 4/20/9 6/21/9 9/18/9
f 16/22/9 11/23/9 12/24/9
f 14/25/9 16/22/9 12/24/9
f 10/26/10 15/27/10 13/28/10
f 10/26/10 8/29/10 7/30/10
f 3/31/10 7/30/10 5/32/10
f 2/33/10 15/27/10 3/31/10
f 1/1/1 16/17/1 2/2/1
f 4/4/2 1/1/2 3/3/2
f 6/6/3 4/34/3 5/7/3
f 6/6/4 7/8/4 8/9/4
f 9/10/5 8/9/5 10/11/5
f 12/13/6 11/12/6 10/11/6
f 14/15/7 12/13/7 13/14/7
f 16/17/8 14/15/8 15/16/8
f 9/18/9 16/22/9 1/19/9
f 16/22/9 9/18/9 11/23/9
f 10/26/10 7/30/10 15/27/10
f 3/31/10 15/27/10 7/30/10
