# Blender v3.2.2 OBJ File: ''
# www.blender.org
mtllib untitled.mtl
o 302_14066F61_c.bmp
v 0.039395 0.114087 -0.045075
v 0.364394 -0.020913 0.035925
v 0.369394 0.096086 -0.046075
v 0.364394 -0.020913 0.035925
v 0.037394 -0.072913 0.014925
v 0.364394 -0.094913 0.035925
v 0.364394 -0.094913 0.035925
v 0.036394 -0.132914 -0.047075
v 0.364394 -0.147914 -0.041075
v 0.364394 -0.020913 0.035925
v 0.039395 0.114087 -0.045075
v 0.037394 -0.006913 0.014925
v 0.037394 -0.072913 0.014925
v 0.364394 -0.020913 0.035925
v 0.037394 -0.006913 0.014925
v 0.036394 -0.132914 -0.047075
v 0.364394 -0.094913 0.035925
v 0.037394 -0.072913 0.014925
v -0.285606 0.121087 -0.045075
v 0.037394 -0.006913 0.014925
v 0.039395 0.114087 -0.045075
v 0.037394 -0.072913 0.014925
v -0.289605 -0.116913 -0.045075
v 0.036394 -0.132914 -0.047075
v -0.616606 0.011087 0.017925
v -0.285606 0.121087 -0.045075
v -0.614606 0.124086 -0.043075
v -0.285606 0.121087 -0.045075
v -0.616606 0.011087 0.017925
v -0.290606 0.013087 0.017925
v -0.289605 -0.116913 -0.045075
v 0.037394 -0.072913 0.014925
v -0.289605 -0.053913 0.017925
v -0.289605 -0.053913 0.017925
v 0.037394 -0.006913 0.014925
v -0.290606 0.013087 0.017925
v 0.037394 -0.006913 0.014925
v -0.285606 0.121087 -0.045075
v -0.290606 0.013087 0.017925
v 0.037394 -0.006913 0.014925
v -0.289605 -0.053913 0.017925
v 0.037394 -0.072913 0.014925
vt 5.983887 0.122314
vt 7.990234 0.189697
vt 7.962891 0.690918
vt 7.962891 0.725830
vt 7.961426 0.956787
vt 5.971191 0.944824
vt 8.927734 0.775879
vt 8.927734 0.974365
vt 6.935547 0.974854
vt 7.962891 0.690918
vt 5.971191 0.684082
vt 5.983887 0.122314
vt 5.971191 0.944824
vt 5.956543 0.736328
vt 7.962891 0.725830
vt 6.935547 0.974854
vt 6.937500 0.737305
vt 8.927734 0.775879
vt 4.041504 0.092773
vt 5.983887 0.122314
vt 5.971191 0.684082
vt 6.937500 0.737305
vt 6.935547 0.974854
vt 5.059082 0.976318
vt 0.000000 -0.290283
vt 0.000000 -0.989990
vt 2.000000 -0.989990
vt 2.000000 -0.989990
vt 2.000000 -0.290283
vt 0.000000 -0.290283
vt 5.059082 0.976318
vt 4.983887 0.708984
vt 6.937500 0.737305
vt 4.017578 0.948242
vt 4.014160 0.718262
vt 5.971191 0.719238
vt 5.971191 0.684082
vt 4.014160 0.679199
vt 4.041504 0.092773
vt 5.971191 0.719238
vt 5.971191 0.948242
vt 4.017578 0.948242
vn -0.0337 -0.5726 -0.8191
vn 0.0641 -0.0000 -0.9979
vn 0.0480 0.8228 -0.5663
vn 0.0384 -0.4444 -0.8950
vn 0.0926 0.7148 -0.6932
vn -0.0096 -0.4441 -0.8959
vn 0.0310 0.7180 -0.6953
vn -0.0097 -0.4749 -0.8800
vn 0.0031 -0.5040 -0.8637
vn 0.0346 0.7067 -0.7067
vn -0.0092 -0.0001 -1.0000
vn -0.0385 -0.5022 -0.8639
vn -0.0092 -0.0000 -1.0000
usemtl 302_14066F61_c.bmp
s off
f 1/1/1 3/2/1 2/3/1
f 4/4/2 6/5/2 5/6/2
f 7/7/3 9/8/3 8/9/3
f 10/10/4 12/11/4 11/12/4
f 13/13/2 15/14/2 14/15/2
f 16/16/5 18/17/5 17/18/5
f 19/19/6 21/20/6 20/21/6
f 22/22/7 24/23/7 23/24/7
f 25/25/8 27/26/8 26/27/8
f 28/28/9 30/29/9 29/30/9
f 31/31/10 33/32/10 32/33/10
f 34/34/11 36/35/11 35/36/11
f 37/37/12 39/38/12 38/39/12
f 40/40/13 42/41/13 41/42/13
