# Blender v3.2.2 OBJ File: ''
# www.blender.org
mtllib untitled.mtl
o 207_32301D3A_c.bmp
v -0.704000 0.037000 0.366000
v -1.688000 -0.034000 0.350000
v -0.705000 -0.034000 0.350000
v -1.688000 -0.034000 0.350000
v -0.704000 0.037000 0.366000
v -1.687000 0.027000 0.360000
vt 0.001465 1.000000
vt 0.009583 0.000000
vt 1.500000 0.000000
vt 1.500000 0.000000
vt 1.500000 1.000000
vt 0.001465 1.000000
vn 0.0000 0.2198 -0.9755
vn 0.0044 0.1617 -0.9868
usemtl 207_32301D3A_c.bmp
s off
f 1/1/1 3/2/1 2/3/1
f 4/4/2 6/5/2 5/6/2
