# Blender v3.2.2 OBJ File: ''
# www.blender.org
mtllib untitled.mtl
o IndustrialBuildingFront_Plane.001
v 1.565372 -7.413563 0.071184
v 1.565372 -6.280165 0.071184
v 3.689717 -6.280165 0.071184
v 3.689717 -7.413563 0.071184
v -3.759171 -7.413563 0.071184
v -3.759171 -6.280165 0.071184
v -1.687221 -6.280165 0.071184
v -1.687221 -7.413563 0.071184
v -1.138624 -7.413563 0.071184
v -1.138624 -6.280165 0.071184
v 1.023660 -6.280165 0.071184
v 1.023660 -7.413563 0.071184
v -1.138624 -1.700146 0.071184
v -1.138624 -0.595188 0.071184
v 1.023660 -0.595188 0.071184
v 1.023660 -1.700146 0.071184
v -1.138624 -3.627953 0.071184
v -1.138624 -2.490180 0.071184
v 1.023660 -2.490180 0.071184
v 1.023660 -3.627953 0.071184
v -1.138624 -5.516383 0.071184
v -1.138624 -4.402674 0.071184
v 1.023660 -4.402674 0.071184
v 1.023660 -5.516383 0.071184
v -3.759171 -1.700146 0.071184
v -3.759171 -0.595188 0.071184
v -1.687221 -0.595188 0.071184
v -1.687221 -1.700146 0.071184
v -3.759171 -3.627953 0.071184
v -3.759171 -2.490180 0.071184
v -1.687221 -2.490180 0.071184
v -1.687221 -3.627953 0.071184
v -3.759171 -5.516383 0.071184
v -3.759171 -4.402674 0.071184
v -1.687221 -4.402674 0.071184
v -1.687221 -5.516383 0.071184
v 1.565372 -1.700146 0.071184
v 1.565372 -0.595188 0.071184
v 3.689717 -0.595188 0.071184
v 3.689717 -1.700146 0.071184
v 1.565372 -3.627953 0.071184
v 1.565372 -2.490180 0.071184
v 3.689717 -2.490180 0.071184
v 3.689717 -3.627953 0.071184
v 1.565372 -5.516383 0.071184
v 1.565372 -4.402674 0.071184
v 3.689717 -4.402674 0.071184
v 3.689717 -5.516383 0.071184
v -4.000000 -2.091903 0.000000
v -4.000000 0.000000 0.000000
v -3.793395 -0.560964 0.000000
v -3.793395 -1.734370 0.000000
v 1.057884 -1.734370 0.000000
v 1.057884 -0.560964 0.000000
v 1.531148 -0.560964 0.000000
v 1.531148 -1.734370 0.000000
v 1.316688 -8.000000 0.000000
v 1.531148 -7.447787 0.000000
v 3.723941 -7.447787 0.000000
v 4.000000 -8.000000 0.000000
v -1.652997 -2.455956 0.000000
v -1.652997 -1.734370 0.000000
v -1.172848 -1.734370 0.000000
v -1.172848 -2.455956 0.000000
v 3.723941 -0.560964 0.000000
v 4.000000 0.000000 0.000000
v 4.000000 -2.094553 0.000000
v 3.723941 -1.734370 0.000000
v 1.531148 -4.368450 0.000000
v 1.531148 -3.662177 0.000000
v 3.723941 -3.662177 0.000000
v 3.723941 -4.368450 0.000000
v -1.172848 -6.245941 0.000000
v -1.172848 -5.550607 0.000000
v 1.057884 -5.550607 0.000000
v 1.057884 -6.245941 0.000000
v -3.793395 -2.455956 0.000000
v 1.531148 -6.245941 0.000000
v 1.531148 -5.550607 0.000000
v 3.723941 -5.550607 0.000000
v 3.723941 -6.245941 0.000000
v 1.057884 -4.368450 0.000000
v 1.057884 -3.662177 0.000000
v -1.652997 -0.560964 0.000000
v -1.172848 -0.560964 0.000000
v -1.395247 0.000000 0.000000
v 1.302273 0.000000 0.000000
v 1.057884 -7.447787 0.000000
v 1.057884 -6.245941 0.000000
v -1.415609 -8.000000 0.000000
v -1.172848 -7.447787 0.000000
v 1.057884 -2.455956 0.000000
v 1.531148 -2.455956 0.000000
v 3.723941 -2.455956 0.000000
v 1.057884 -5.550607 0.000000
v -3.793395 -6.245941 0.000000
v -3.793395 -5.550607 0.000000
v -1.652997 -5.550607 0.000000
v -1.652997 -6.245941 0.000000
v -1.172848 -2.455956 0.000000
v -1.172848 -1.734370 0.000000
v 1.057884 -1.734370 0.000000
v 1.057884 -2.455956 0.000000
v -1.652997 -4.368450 0.000000
v -1.652997 -3.662177 0.000000
v -1.172848 -3.662177 0.000000
v -1.172848 -4.368450 0.000000
v -4.000000 -4.000000 0.000000
v -3.793395 -3.662177 0.000000
v -1.652997 -3.662177 0.000000
v -1.652997 -4.368450 0.000000
v -3.793395 -4.368450 0.000000
v -1.172848 -5.550607 0.000000
v -1.172848 -6.245941 0.000000
v 4.000000 -5.908601 0.000000
v -1.652997 -7.447787 0.000000
v -4.000000 -8.000000 0.000000
v -3.793395 -7.447787 0.000000
v -4.000000 -5.913846 0.000000
v 4.000000 -4.013990 0.000000
v 3.723941 -4.368450 0.000000
v 4.000000 -4.013990 0.000000
v 4.000000 -5.908601 0.000000
v 3.723941 -5.550607 0.000000
v 3.723941 -2.455956 0.000000
v 4.000000 -2.094553 0.000000
v 3.723941 -3.662177 0.000000
v -4.000000 -4.000000 0.000000
v -3.793395 -3.662177 0.000000
v -3.793395 -4.368450 0.000000
v -3.793395 -1.734370 0.000000
v -3.793395 -0.560964 0.000000
v -3.759171 -0.595188 0.071184
v -3.759171 -1.700146 0.071184
v 1.565372 -0.595188 0.071184
v 1.531148 -0.560964 0.000000
v 3.723941 -0.560964 0.000000
v 3.689717 -0.595188 0.071184
v 3.689717 -6.280165 0.071184
v 3.723941 -6.245941 0.000000
v 3.723941 -7.447787 0.000000
v 3.689717 -7.413563 0.071184
v -3.793395 -7.447787 0.000000
v -3.759171 -7.413563 0.071184
v -1.687221 -7.413563 0.071184
v -1.652997 -7.447787 0.000000
v -3.759171 -0.595188 0.071184
v -3.793395 -0.560964 0.000000
v -1.652997 -0.560964 0.000000
v -1.687221 -0.595188 0.071184
v -1.138624 -0.595188 0.071184
v -1.172848 -0.560964 0.000000
v 1.057884 -0.560964 0.000000
v 1.023660 -0.595188 0.071184
v 1.531148 -7.447787 0.000000
v 1.565372 -7.413563 0.071184
v 3.689717 -7.413563 0.071184
v 3.723941 -7.447787 0.000000
v -1.172848 -7.447787 0.000000
v -1.138624 -7.413563 0.071184
v 1.023660 -7.413563 0.071184
v 1.057884 -7.447787 0.000000
v -3.793395 -7.447787 0.000000
v -3.793395 -6.245941 0.000000
v -3.759171 -6.280165 0.071184
v -3.759171 -7.413563 0.071184
v -3.793395 -5.550607 0.000000
v -3.793395 -4.368450 0.000000
v -3.759171 -4.402674 0.071184
v -3.759171 -5.516383 0.071184
v -3.793395 -3.662177 0.000000
v -3.793395 -2.455956 0.000000
v -3.759171 -2.490180 0.071184
v -3.759171 -3.627953 0.071184
v 3.689717 -0.595188 0.071184
v 3.723941 -0.560964 0.000000
v 3.723941 -1.734370 0.000000
v 3.689717 -1.700146 0.071184
v 3.689717 -2.490180 0.071184
v 3.723941 -2.455956 0.000000
v 3.723941 -3.662177 0.000000
v 3.689717 -3.627953 0.071184
v 3.689717 -4.402674 0.071184
v 3.723941 -4.368450 0.000000
v 3.723941 -5.550607 0.000000
v 3.689717 -5.516383 0.071184
v -1.172848 -7.447787 0.000000
v -1.172848 -6.245941 0.000000
v -1.138624 -6.280165 0.071184
v -1.138624 -7.413563 0.071184
v 1.023660 -6.280165 0.071184
v 1.057884 -6.245941 0.000000
v 1.057884 -7.447787 0.000000
v 1.023660 -7.413563 0.071184
v -1.687221 -0.595188 0.071184
v -1.652997 -0.560964 0.000000
v -1.652997 -1.734370 0.000000
v -1.687221 -1.700146 0.071184
v -1.172848 -3.662177 0.000000
v -1.172848 -2.455956 0.000000
v -1.138624 -2.490180 0.071184
v -1.138624 -3.627953 0.071184
v -1.687221 -4.402674 0.071184
v -1.652997 -4.368450 0.000000
v -1.652997 -5.550607 0.000000
v -1.687221 -5.516383 0.071184
v 1.531148 -1.734370 0.000000
v 1.531148 -0.560964 0.000000
v 1.565372 -0.595188 0.071184
v 1.565372 -1.700146 0.071184
v 1.023660 -2.490180 0.071184
v 1.057884 -2.455956 0.000000
v 1.057884 -3.662177 0.000000
v 1.023660 -3.627953 0.071184
v 1.531148 -5.550607 0.000000
v 1.531148 -4.368450 0.000000
v 1.565372 -4.402674 0.071184
v 1.565372 -5.516383 0.071184
v -1.138624 -2.490180 0.071184
v -1.172848 -2.455956 0.000000
v 1.057884 -2.455956 0.000000
v 1.023660 -2.490180 0.071184
v -1.172848 -3.662177 0.000000
v -1.138624 -3.627953 0.071184
v 1.023660 -3.627953 0.071184
v 1.057884 -3.662177 0.000000
v -1.138624 -6.280165 0.071184
v -1.172848 -6.245941 0.000000
v 1.057884 -6.245941 0.000000
v 1.023660 -6.280165 0.071184
v -3.793395 -1.734370 0.000000
v -3.759171 -1.700146 0.071184
v -1.687221 -1.700146 0.071184
v -1.652997 -1.734370 0.000000
v -3.759171 -4.402674 0.071184
v -3.793395 -4.368450 0.000000
v -1.652997 -4.368450 0.000000
v -1.687221 -4.402674 0.071184
v -3.793395 -5.550607 0.000000
v -3.759171 -5.516383 0.071184
v -1.687221 -5.516383 0.071184
v -1.652997 -5.550607 0.000000
v 1.531148 -1.734370 0.000000
v 1.565372 -1.700146 0.071184
v 3.689717 -1.700146 0.071184
v 3.723941 -1.734370 0.000000
v 1.565372 -4.402674 0.071184
v 1.531148 -4.368450 0.000000
v 3.723941 -4.368450 0.000000
v 3.689717 -4.402674 0.071184
v 1.531148 -5.550607 0.000000
v 1.565372 -5.516383 0.071184
v 3.689717 -5.516383 0.071184
v 3.723941 -5.550607 0.000000
v -1.687221 -6.280165 0.071184
v -1.652997 -6.245941 0.000000
v -1.652997 -7.447787 0.000000
v -1.687221 -7.413563 0.071184
v 1.531148 -7.447787 0.000000
v 1.531148 -6.245941 0.000000
v 1.565372 -6.280165 0.071184
v 1.565372 -7.413563 0.071184
v -1.172848 -1.734370 0.000000
v -1.172848 -0.560964 0.000000
v -1.138624 -0.595188 0.071184
v -1.138624 -1.700146 0.071184
v -1.687221 -2.490180 0.071184
v -1.652997 -2.455956 0.000000
v -1.652997 -3.662177 0.000000
v -1.687221 -3.627953 0.071184
v -1.172848 -5.550607 0.000000
v -1.172848 -4.368450 0.000000
v -1.138624 -4.402674 0.071184
v -1.138624 -5.516383 0.071184
v 1.023660 -0.595188 0.071184
v 1.057884 -0.560964 0.000000
v 1.057884 -1.734370 0.000000
v 1.023660 -1.700146 0.071184
v 1.531148 -3.662177 0.000000
v 1.531148 -2.455956 0.000000
v 1.565372 -2.490180 0.071184
v 1.565372 -3.627953 0.071184
v 1.023660 -4.402674 0.071184
v 1.057884 -4.368450 0.000000
v 1.057884 -5.550607 0.000000
v 1.023660 -5.516383 0.071184
v -1.172848 -1.734370 0.000000
v -1.138624 -1.700146 0.071184
v 1.023660 -1.700146 0.071184
v 1.057884 -1.734370 0.000000
v -1.138624 -4.402674 0.071184
v -1.172848 -4.368450 0.000000
v 1.057884 -4.368450 0.000000
v 1.023660 -4.402674 0.071184
v -1.172848 -5.550607 0.000000
v -1.138624 -5.516383 0.071184
v 1.023660 -5.516383 0.071184
v 1.057884 -5.550607 0.000000
v -3.759171 -2.490180 0.071184
v -3.793395 -2.455956 0.000000
v -1.652997 -2.455956 0.000000
v -1.687221 -2.490180 0.071184
v -3.793395 -3.662177 0.000000
v -3.759171 -3.627953 0.071184
v -1.687221 -3.627953 0.071184
v -1.652997 -3.662177 0.000000
v -3.759171 -6.280165 0.071184
v -3.793395 -6.245941 0.000000
v -1.652997 -6.245941 0.000000
v -1.687221 -6.280165 0.071184
v 1.565372 -2.490180 0.071184
v 1.531148 -2.455956 0.000000
v 3.723941 -2.455956 0.000000
v 3.689717 -2.490180 0.071184
v 1.531148 -3.662177 0.000000
v 1.565372 -3.627953 0.071184
v 3.689717 -3.627953 0.071184
v 3.723941 -3.662177 0.000000
v 1.565372 -6.280165 0.071184
v 1.531148 -6.245941 0.000000
v 3.723941 -6.245941 0.000000
v 3.689717 -6.280165 0.071184
vt 0.695312 0.925781
vt 0.695312 0.785156
vt 0.960938 0.785156
vt 0.960938 0.925781
vt 0.031250 0.925781
vt 0.031250 0.785156
vt 0.289062 0.785156
vt 0.289062 0.925781
vt 0.359375 0.925781
vt 0.359375 0.785156
vt 0.625000 0.785156
vt 0.625000 0.925781
vt 0.359375 0.210938
vt 0.359375 0.074219
vt 0.625000 0.074219
vt 0.625000 0.210938
vt 0.359375 0.453125
vt 0.359375 0.312500
vt 0.625000 0.312500
vt 0.625000 0.453125
vt 0.359375 0.691406
vt 0.359375 0.550781
vt 0.625000 0.550781
vt 0.625000 0.687500
vt 0.031250 0.214844
vt 0.031250 0.074219
vt 0.289062 0.074219
vt 0.289062 0.214844
vt 0.031250 0.453125
vt 0.031250 0.312500
vt 0.289062 0.312500
vt 0.289062 0.453125
vt 0.031250 0.691406
vt 0.031250 0.550781
vt 0.289062 0.550781
vt 0.289062 0.691406
vt 0.691406 0.210938
vt 0.691406 0.074219
vt 0.960938 0.074219
vt 0.960938 0.210938
vt 0.691406 0.453125
vt 0.695312 0.312500
vt 0.960938 0.312500
vt 0.960938 0.453125
vt 0.695312 0.687500
vt 0.695312 0.550781
vt 0.960938 0.550781
vt 0.960938 0.687500
vt 0.000000 0.261719
vt 0.000000 0.000000
vt 0.027344 0.070312
vt 0.027344 0.218750
vt 0.628906 0.218750
vt 0.628906 0.070312
vt 0.687500 0.070312
vt 0.687500 0.218750
vt 0.660156 1.000000
vt 0.687500 0.929688
vt 0.964844 0.929688
vt 1.000000 1.000000
vt 0.292969 0.308594
vt 0.292969 0.218750
vt 0.355469 0.218750
vt 0.355469 0.308594
vt 0.964844 0.070312
vt 1.000000 0.000000
vt 1.000000 0.261719
vt 0.964844 0.214844
vt 0.687500 0.546875
vt 0.687500 0.457031
vt 0.964844 0.457031
vt 0.964844 0.546875
vt 0.027344 0.308594
vt 0.687500 0.781250
vt 0.687500 0.695312
vt 0.964844 0.695312
vt 0.964844 0.781250
vt 0.628906 0.546875
vt 0.628906 0.457031
vt 0.292969 0.070312
vt 0.355469 0.070312
vt 0.324219 0.000000
vt 0.660156 0.000000
vt 0.628906 0.929688
vt 0.628906 0.781250
vt 0.324219 1.000000
vt 0.355469 0.929688
vt 0.628906 0.308594
vt 0.687500 0.308594
vt 0.964844 0.308594
vt 0.628906 0.695312
vt 0.027344 0.781250
vt 0.027344 0.695312
vt 0.292969 0.695312
vt 0.292969 0.781250
vt 0.292969 0.546875
vt 0.292969 0.457031
vt 0.355469 0.457031
vt 0.355469 0.546875
vt 0.000000 0.500000
vt 0.027344 0.457031
vt 0.292969 0.457031
vt 0.292969 0.546875
vt 0.355469 0.695312
vt 0.355469 0.781250
vt 1.000000 0.738281
vt 0.292969 0.929688
vt 0.000000 1.000000
vt 0.027344 0.929688
vt 0.000000 0.738281
vt 1.000000 0.500000
vt 0.964844 0.546875
vt 1.000000 0.500000
vt 1.000000 0.738281
vt 0.964844 0.695312
vt 0.964844 0.308594
vt 1.000000 0.261719
vt 0.964844 0.457031
vt 0.000000 0.500000
vt 0.027344 0.457031
vt 0.027344 0.546875
vt 0.027344 0.218750
vt 0.027344 0.070312
vt 0.031250 0.074219
vt 0.031250 0.214844
vt 0.691406 0.074219
vt 0.687500 0.070312
vt 0.964844 0.070312
vt 0.960938 0.074219
vt 0.960938 0.785156
vt 0.964844 0.781250
vt 0.964844 0.929688
vt 0.960938 0.925781
vt 0.027344 0.929688
vt 0.031250 0.925781
vt 0.289062 0.925781
vt 0.292969 0.929688
vt 0.031250 0.074219
vt 0.027344 0.070312
vt 0.292969 0.070312
vt 0.289062 0.074219
vt 0.359375 0.074219
vt 0.355469 0.070312
vt 0.628906 0.070312
vt 0.625000 0.074219
vt 0.687500 0.929688
vt 0.695312 0.925781
vt 0.960938 0.925781
vt 0.964844 0.929688
vt 0.355469 0.929688
vt 0.359375 0.925781
vt 0.625000 0.925781
vt 0.628906 0.929688
vt 0.027344 0.929688
vt 0.027344 0.781250
vt 0.031250 0.785156
vt 0.031250 0.925781
vt 0.027344 0.695312
vt 0.027344 0.546875
vt 0.031250 0.550781
vt 0.031250 0.691406
vt 0.027344 0.457031
vt 0.027344 0.308594
vt 0.031250 0.312500
vt 0.031250 0.453125
vt 0.960938 0.074219
vt 0.964844 0.070312
vt 0.964844 0.214844
vt 0.960938 0.210938
vt 0.960938 0.312500
vt 0.964844 0.308594
vt 0.964844 0.457031
vt 0.960938 0.453125
vt 0.960938 0.550781
vt 0.964844 0.546875
vt 0.964844 0.695312
vt 0.960938 0.687500
vt 0.355469 0.929688
vt 0.355469 0.781250
vt 0.359375 0.785156
vt 0.359375 0.925781
vt 0.625000 0.785156
vt 0.628906 0.781250
vt 0.628906 0.929688
vt 0.625000 0.925781
vt 0.289062 0.074219
vt 0.292969 0.070312
vt 0.292969 0.218750
vt 0.289062 0.214844
vt 0.355469 0.457031
vt 0.355469 0.308594
vt 0.359375 0.312500
vt 0.359375 0.453125
vt 0.289062 0.550781
vt 0.292969 0.546875
vt 0.292969 0.695312
vt 0.289062 0.691406
vt 0.687500 0.218750
vt 0.687500 0.070312
vt 0.691406 0.074219
vt 0.691406 0.210938
vt 0.625000 0.312500
vt 0.628906 0.308594
vt 0.628906 0.457031
vt 0.625000 0.453125
vt 0.687500 0.695312
vt 0.687500 0.546875
vt 0.695312 0.550781
vt 0.695312 0.687500
vt 0.359375 0.312500
vt 0.355469 0.308594
vt 0.628906 0.308594
vt 0.625000 0.312500
vt 0.355469 0.457031
vt 0.359375 0.453125
vt 0.625000 0.453125
vt 0.628906 0.457031
vt 0.359375 0.785156
vt 0.355469 0.781250
vt 0.628906 0.781250
vt 0.625000 0.785156
vt 0.027344 0.218750
vt 0.031250 0.214844
vt 0.289062 0.214844
vt 0.292969 0.218750
vt 0.031250 0.550781
vt 0.027344 0.546875
vt 0.292969 0.546875
vt 0.289062 0.550781
vt 0.027344 0.695312
vt 0.031250 0.691406
vt 0.289062 0.691406
vt 0.292969 0.695312
vt 0.687500 0.218750
vt 0.691406 0.210938
vt 0.960938 0.210938
vt 0.964844 0.214844
vt 0.695312 0.550781
vt 0.687500 0.546875
vt 0.964844 0.546875
vt 0.960938 0.550781
vt 0.687500 0.695312
vt 0.695312 0.687500
vt 0.960938 0.687500
vt 0.964844 0.695312
vt 0.289062 0.785156
vt 0.292969 0.781250
vt 0.292969 0.929688
vt 0.289062 0.925781
vt 0.687500 0.929688
vt 0.687500 0.781250
vt 0.695312 0.785156
vt 0.695312 0.925781
vt 0.355469 0.218750
vt 0.355469 0.070312
vt 0.359375 0.074219
vt 0.359375 0.210938
vt 0.289062 0.312500
vt 0.292969 0.308594
vt 0.292969 0.457031
vt 0.289062 0.453125
vt 0.355469 0.695312
vt 0.355469 0.546875
vt 0.359375 0.550781
vt 0.359375 0.691406
vt 0.625000 0.074219
vt 0.628906 0.070312
vt 0.628906 0.218750
vt 0.625000 0.210938
vt 0.687500 0.457031
vt 0.687500 0.308594
vt 0.695312 0.312500
vt 0.691406 0.453125
vt 0.625000 0.550781
vt 0.628906 0.546875
vt 0.628906 0.695312
vt 0.625000 0.687500
vt 0.355469 0.218750
vt 0.359375 0.210938
vt 0.625000 0.210938
vt 0.628906 0.218750
vt 0.359375 0.550781
vt 0.355469 0.546875
vt 0.628906 0.546875
vt 0.625000 0.550781
vt 0.355469 0.695312
vt 0.359375 0.691406
vt 0.625000 0.687500
vt 0.628906 0.695312
vt 0.031250 0.312500
vt 0.027344 0.308594
vt 0.292969 0.308594
vt 0.289062 0.312500
vt 0.027344 0.457031
vt 0.031250 0.453125
vt 0.289062 0.453125
vt 0.292969 0.457031
vt 0.031250 0.785156
vt 0.027344 0.781250
vt 0.292969 0.781250
vt 0.289062 0.785156
vt 0.695312 0.312500
vt 0.687500 0.308594
vt 0.964844 0.308594
vt 0.960938 0.312500
vt 0.687500 0.457031
vt 0.691406 0.453125
vt 0.960938 0.453125
vt 0.964844 0.457031
vt 0.695312 0.785156
vt 0.687500 0.781250
vt 0.964844 0.781250
vt 0.960938 0.785156
vt 0.355469 0.781250
vt 0.355469 0.695312
vt 0.628906 0.695312
vt 0.628906 0.781250
vt 0.355469 0.308594
vt 0.355469 0.218750
vt 0.628906 0.218750
vt 0.628906 0.308594
vt 0.027344 0.546875
vn 0.0000 0.0000 -1.0000
vn 0.9012 0.0000 -0.4333
vn 0.0000 -0.9012 -0.4333
vn -0.9012 0.0000 -0.4333
vn 0.0000 0.9013 -0.4333
vn 0.0000 0.9012 -0.4333
vn 0.0000 -0.9013 -0.4333
usemtl industrial_building
s off
f 1/1/1 2/2/1 3/3/1
f 1/1/1 3/3/1 4/4/1
f 5/5/1 6/6/1 7/7/1
f 5/5/1 7/7/1 8/8/1
f 9/9/1 10/10/1 11/11/1
f 9/9/1 11/11/1 12/12/1
f 13/13/1 14/14/1 15/15/1
f 13/13/1 15/15/1 16/16/1
f 17/17/1 18/18/1 19/19/1
f 17/17/1 19/19/1 20/20/1
f 21/21/1 22/22/1 23/23/1
f 21/21/1 23/23/1 24/24/1
f 25/25/1 26/26/1 27/27/1
f 25/25/1 27/27/1 28/28/1
f 29/29/1 30/30/1 31/31/1
f 29/29/1 31/31/1 32/32/1
f 33/33/1 34/34/1 35/35/1
f 33/33/1 35/35/1 36/36/1
f 37/37/1 38/38/1 39/39/1
f 37/37/1 39/39/1 40/40/1
f 41/41/1 42/42/1 43/43/1
f 41/41/1 43/43/1 44/44/1
f 45/45/1 46/46/1 47/47/1
f 45/45/1 47/47/1 48/48/1
f 49/49/1 50/50/1 51/51/1
f 49/49/1 51/51/1 52/52/1
f 53/53/1 54/54/1 55/55/1
f 53/53/1 55/55/1 56/56/1
f 57/57/1 58/58/1 59/59/1
f 57/57/1 59/59/1 60/60/1
f 61/61/1 62/62/1 63/63/1
f 61/61/1 63/63/1 64/64/1
f 65/65/1 66/66/1 67/67/1
f 68/68/1 65/65/1 67/67/1
f 69/69/1 70/70/1 71/71/1
f 69/69/1 71/71/1 72/72/1
f 77/73/1 52/52/1 62/62/1
f 77/73/1 62/62/1 61/61/1
f 78/74/1 79/75/1 80/76/1
f 78/74/1 80/76/1 81/77/1
f 82/78/1 83/79/1 70/70/1
f 82/78/1 70/70/1 69/69/1
f 62/62/1 84/80/1 85/81/1
f 62/62/1 85/81/1 63/63/1
f 85/81/1 86/82/1 87/83/1
f 85/81/1 87/83/1 54/54/1
f 88/84/1 89/85/1 78/74/1
f 88/84/1 78/74/1 58/58/1
f 90/86/1 91/87/1 88/84/1
f 90/86/1 88/84/1 57/57/1
f 83/79/1 92/88/1 93/89/1
f 83/79/1 93/89/1 70/70/1
f 93/89/1 56/56/1 68/68/1
f 93/89/1 68/68/1 94/90/1
f 95/91/1 82/78/1 69/69/1
f 95/91/1 69/69/1 79/75/1
f 96/92/1 97/93/1 98/94/1
f 96/92/1 98/94/1 99/95/1
f 92/88/1 53/53/1 56/56/1
f 92/88/1 56/56/1 93/89/1
f 94/90/1 68/68/1 67/67/1
f 104/96/1 105/97/1 106/98/1
f 104/96/1 106/98/1 107/99/1
f 107/99/1 106/98/1 83/79/1
f 107/99/1 83/79/1 82/78/1
f 105/97/1 61/61/1 64/64/1
f 105/97/1 64/64/1 106/98/1
f 108/100/1 109/101/1 110/102/1
f 108/100/1 110/102/1 111/103/1
f 99/95/1 98/94/1 113/104/1
f 99/95/1 113/104/1 114/105/1
f 80/76/1 115/106/1 81/77/1
f 57/57/1 88/84/1 58/58/1
f 98/94/1 104/96/1 107/99/1
f 98/94/1 107/99/1 113/104/1
f 89/85/1 95/91/1 79/75/1
f 89/85/1 79/75/1 78/74/1
f 91/87/1 90/86/1 116/107/1
f 117/108/1 118/109/1 116/107/1
f 117/108/1 116/107/1 90/86/1
f 116/107/1 99/95/1 114/105/1
f 116/107/1 114/105/1 91/87/1
f 81/77/1 115/106/1 60/60/1
f 59/59/1 81/77/1 60/60/1
f 117/108/1 119/110/1 96/92/1
f 117/108/1 96/92/1 118/109/1
f 72/72/1 71/71/1 120/111/1
f 121/112/1 122/113/1 123/114/1
f 124/115/1 121/112/1 123/114/1
f 77/73/1 49/49/1 52/52/1
f 55/55/1 87/83/1 66/66/1
f 55/55/1 66/66/1 65/65/1
f 125/116/1 126/117/1 122/113/1
f 127/118/1 125/116/1 122/113/1
f 55/55/1 54/54/1 87/83/1
f 85/81/1 84/80/1 86/82/1
f 51/51/1 50/50/1 86/82/1
f 51/51/1 86/82/1 84/80/1
f 128/119/1 49/49/1 77/73/1
f 128/119/1 77/73/1 129/120/1
f 119/110/1 97/93/1 96/92/1
f 119/110/1 128/119/1 130/121/1
f 119/110/1 130/121/1 97/93/1
f 131/122/2 132/123/2 133/124/2
f 131/122/2 133/124/2 134/125/2
f 135/126/3 136/127/3 137/128/3
f 135/126/3 137/128/3 138/129/3
f 139/130/4 140/131/4 141/132/4
f 142/133/4 139/130/4 141/132/4
f 143/134/5 144/135/5 145/136/5
f 143/134/6 145/136/6 146/137/6
f 147/138/3 148/139/3 149/140/3
f 147/138/3 149/140/3 150/141/3
f 151/142/3 152/143/3 153/144/3
f 151/142/3 153/144/3 154/145/3
f 155/146/5 156/147/5 157/148/5
f 155/146/5 157/148/5 158/149/5
f 159/150/6 160/151/6 161/152/6
f 159/150/6 161/152/6 162/153/6
f 163/154/2 164/155/2 165/156/2
f 163/154/2 165/156/2 166/157/2
f 167/158/2 168/159/2 169/160/2
f 167/158/2 169/160/2 170/161/2
f 171/162/2 172/163/2 173/164/2
f 171/162/2 173/164/2 174/165/2
f 175/166/4 176/167/4 177/168/4
f 178/169/4 175/166/4 177/168/4
f 179/170/4 180/171/4 181/172/4
f 182/173/4 179/170/4 181/172/4
f 183/174/4 184/175/4 185/176/4
f 186/177/4 183/174/4 185/176/4
f 187/178/2 188/179/2 189/180/2
f 187/178/2 189/180/2 190/181/2
f 191/182/4 192/183/4 193/184/4
f 194/185/4 191/182/4 193/184/4
f 195/186/4 196/187/4 197/188/4
f 198/189/4 195/186/4 197/188/4
f 199/190/2 200/191/2 201/192/2
f 199/190/2 201/192/2 202/193/2
f 203/194/4 204/195/4 205/196/4
f 206/197/4 203/194/4 205/196/4
f 207/198/2 208/199/2 209/200/2
f 207/198/2 209/200/2 210/201/2
f 211/202/4 212/203/4 213/204/4
f 214/205/4 211/202/4 213/204/4
f 215/206/2 216/207/2 217/208/2
f 215/206/2 217/208/2 218/209/2
f 219/210/3 220/211/3 221/212/3
f 219/210/3 221/212/3 222/213/3
f 223/214/6 224/215/6 225/216/6
f 223/214/6 225/216/6 226/217/6
f 227/218/3 228/219/3 229/220/3
f 227/218/7 229/220/7 230/221/7
f 231/222/6 232/223/6 233/224/6
f 231/222/6 233/224/6 234/225/6
f 235/226/3 236/227/3 237/228/3
f 235/226/3 237/228/3 238/229/3
f 239/230/6 240/231/6 241/232/6
f 239/230/5 241/232/5 242/233/5
f 243/234/6 244/235/6 245/236/6
f 243/234/6 245/236/6 246/237/6
f 247/238/3 248/239/3 249/240/3
f 247/238/3 249/240/3 250/241/3
f 251/242/5 252/243/5 253/244/5
f 251/242/6 253/244/6 254/245/6
f 255/246/4 256/247/4 257/248/4
f 258/249/4 255/246/4 257/248/4
f 259/250/2 260/251/2 261/252/2
f 259/250/2 261/252/2 262/253/2
f 263/254/2 264/255/2 265/256/2
f 263/254/2 265/256/2 266/257/2
f 267/258/4 268/259/4 269/260/4
f 270/261/4 267/258/4 269/260/4
f 271/262/2 272/263/2 273/264/2
f 271/262/2 273/264/2 274/265/2
f 275/266/4 276/267/4 277/268/4
f 278/269/4 275/266/4 277/268/4
f 279/270/2 280/271/2 281/272/2
f 279/270/2 281/272/2 282/273/2
f 283/274/4 284/275/4 285/276/4
f 286/277/4 283/274/4 285/276/4
f 287/278/6 288/279/6 289/280/6
f 287/278/6 289/280/6 290/281/6
f 291/282/3 292/283/3 293/284/3
f 291/282/3 293/284/3 294/285/3
f 295/286/6 296/287/6 297/288/6
f 295/286/6 297/288/6 298/289/6
f 299/290/3 300/291/3 301/292/3
f 299/290/3 301/292/3 302/293/3
f 303/294/6 304/295/6 305/296/6
f 303/294/6 305/296/6 306/297/6
f 307/298/3 308/299/3 309/300/3
f 307/298/7 309/300/7 310/301/7
f 311/302/3 312/303/3 313/304/3
f 311/302/3 313/304/3 314/305/3
f 315/306/6 316/307/6 317/308/6
f 315/306/6 317/308/6 318/309/6
f 319/310/3 320/311/3 321/312/3
f 319/310/3 321/312/3 322/313/3
s 1
f 73/314/1 74/315/1 75/316/1
f 73/314/1 75/316/1 76/317/1
f 100/318/1 101/319/1 102/320/1
f 100/318/1 102/320/1 103/321/1
f 112/322/1 108/100/1 111/103/1
