# Blender v3.2.2 OBJ File: ''
# www.blender.org
mtllib untitled.mtl
o 286_8CF041_c.bmp
v 0.899715 0.062303 -0.009370
v -0.901285 -0.070697 -0.003370
v 0.899715 -0.070697 -0.009370
v -0.901285 -0.070697 -0.003370
v 0.899715 0.062303 -0.009370
v -0.900285 0.060303 -0.003370
vt 8.000000 0.000000
vt 8.000000 1.000000
vt -15.999023 1.000000
vt -15.999023 1.000000
vt -15.999023 0.000000
vt 8.000000 0.000000
vn -0.0033 -0.0000 -1.0000
usemtl 286_8CF041_c.bmp
s off
f 1/1/1 3/2/1 2/3/1
f 4/4/1 6/5/1 5/6/1
